<?xml version="1.0" encoding="UTF-8"?> <svg xmlns="http://www.w3.org/2000/svg" width="493" height="82" viewBox="0 0 493 82" fill="none"><path d="M90.7 17.2C90.7 16.6 91 16.1 91.5 15.8C92 15.4 92.6 15.3 93.3 15.3C94.3 15.3 94.9 15.7 95.1 16.5L107.7 58.4001L120.3 16.5C120.5 15.8 121.2 15.3 122 15.3C122.7 15.3 123.3 15.5 123.9 15.9C124.4 16.2 124.7 16.7 124.8 17.3C124.8 17.4 124.8 17.5 124.7 17.5C124.7 17.6 124.6 17.6 124.6 17.7L110.5 64C110.2 65.1 109.3 65.7 107.8 65.7C106.3 65.7 105.4 65.1 105.1 64L90.8 17.7C90.7 17.5 90.7 17.3 90.7 17.2Z" fill="white"></path><path d="M194.6 52.7C194.6 55 195.5 57.2 197.1 58.8C198.8 60.6 200.8 61.5 203 61.5C205.2 61.5 207.3 60.6 208.8 59.1C210.5 57.4 211.3 56 211.3 54.8V45.3C211.3 42.7 210.5 40.6 208.8 39.1C207.3 37.6 205.2 36.7 203.1 36.7C200.8 36.7 198.6 37.7 197.1 39.3C195.5 40.9 194.6 43 194.6 45.3V52.7V52.7ZM190.2 52.7V45.3C190.1 41.9 191.4 38.7 193.8 36.3C196 33.9 199.2 32.5 202.4 32.5C206.1 32.4 209.6 34.5 211.4 37.7V14.8C211.4 14.3 211.7 13.9 212.1 13.6C212.6 13.3 213.2 13.1 213.8 13.1C214.3 13.1 214.9 13.2 215.3 13.6C215.7 13.9 215.9 14.3 215.9 14.8V63.4C215.9 63.9 215.7 64.3 215.3 64.6C214.9 64.9 214.4 65.1 213.8 65.1C213.2 65.1 212.7 64.9 212.3 64.5C211.9 64.2 211.7 63.8 211.6 63.3V60.3C210.7 61.9 209.5 63.2 207.9 64.1C206.2 65.1 204.3 65.7 202.3 65.6C199.1 65.6 196.2 64.3 193.8 61.7C191.5 59.3 190.2 56 190.2 52.7Z" fill="white"></path><path d="M255.7 63.4V34.5C255.7 34 255.9 33.6 256.3 33.3C256.8 33 257.3 32.8 257.9 32.8C258.5 32.8 259 33 259.4 33.3C259.8 33.6 260 34 260 34.5V37.9C260.9 36.3 262.1 35 263.6 34C265.2 32.9 267.2 32.4 269.1 32.4H271.5C272 32.4 272.5 32.7 272.7 33.1C273.1 33.5 273.3 34 273.2 34.5C273.2 35 273 35.5 272.7 35.9C272.4 36.3 271.9 36.5 271.5 36.5H269.1C266.7 36.5 264.6 37.5 262.8 39.3C261 41.1 260.1 43.5 260.1 46.5V63.3C260.1 63.8 259.8 64.3 259.4 64.5C258.9 64.9 258.4 65 257.8 65C257.2 65 256.7 64.8 256.3 64.5C256 64.3 255.7 63.9 255.7 63.4Z" fill="white"></path><path d="M183 45.6999V63.9C183 64.4 182.7 64.7999 182.3 65.0999C181.9 65.4999 181.3 65.6999 180.7 65.5999C180.2 65.5999 179.6 65.3999 179.2 65.0999C178.8 64.7999 178.6 64.4 178.5 63.9V45.7999C178.5 43.4999 177.6 41.2999 175.9 39.6999C172.9 36.3999 167.8 36.0999 164.5 39.1999C164.3 39.3999 164.1 39.5999 164 39.6999C162.4 41.2999 161.5 43.4999 161.5 45.7999V63.9999C161.5 64.4999 161.2 64.8999 160.8 65.1999C160.3 65.4999 159.8 65.6999 159.2 65.6999C158.7 65.6999 158.1 65.5999 157.7 65.1999C157.3 64.9999 157 64.4999 157 63.9999V45.6999C157 42.2999 158.3 39.2999 160.9 36.6999C165.7 31.6999 173.7 31.5 178.8 36.4C178.9 36.5 179 36.5999 179.1 36.6999C181.7 39.2999 183 42.2999 183 45.6999Z" fill="white"></path><path d="M320.2 52.7C320.2 55 321.1 57.2 322.7 58.9C324.2 60.6 326.4 61.6 328.7 61.6C331 61.6 333.2 60.6 334.8 58.9C336.4 57.3 337.3 55 337.3 52.7V45.3C337.3 43.1 336.4 41.1 334.7 39.3C333.1 37.6 331 36.7 328.7 36.7C326.4 36.7 324.2 37.7 322.7 39.3C321.1 40.9 320.2 43 320.2 45.3V52.7ZM315.8 52.7V45.3C315.8 41.9 317.1 38.7 319.6 36.3C322 33.8 325.3 32.5 328.7 32.5C332.1 32.5 335.4 33.8 337.8 36.3C340.3 38.6 341.7 41.9 341.7 45.3V52.7C341.7 56.1 340.4 59.1 337.8 61.7C335.2 64.3 332.2 65.6 328.7 65.6C325.2 65.6 322.3 64.3 319.7 61.7C317.1 59.1 315.8 56.1 315.8 52.7Z" fill="white"></path><path d="M348.7 52.8V34.6C348.7 34.1 349 33.7001 349.4 33.4001C349.8 33.0001 350.4 32.8 351 32.8C351.6 32.8 352.1 33.0001 352.5 33.4001C352.9 33.7001 353.1 34.1 353.2 34.6V52.8C353.2 55.1 354.1 57.2 355.7 58.8C358.7 62.1 363.8 62.4001 367.1 59.4001C367.3 59.2001 367.5 59 367.7 58.8C369.3 57.2 370.2 55 370.2 52.8V34.5C370.2 34 370.5 33.6 370.9 33.3C371.4 33 371.9 32.8 372.5 32.8C373 32.8 373.6 33 374 33.3C374.4 33.6 374.6 34 374.7 34.5V52.8C374.7 56.2 373.4 59.2 370.8 61.8C365.9 66.8 357.8 66.9 352.7 62C352.6 61.9 352.6 61.9 352.5 61.8C349.9 59.2 348.7 56.2 348.7 52.8Z" fill="white"></path><path d="M485.4 45.7V63.9C485.4 64.4 485.1 64.8 484.7 65.1C484.3 65.5 483.7 65.7 483.1 65.6C482.6 65.6 482 65.4 481.6 65.1C481.2 64.8 481 64.4 480.9 63.9V45.8C480.9 43.5 480 41.3 478.3 39.7C475.3 36.4 470.2 36.1 466.9 39.2C466.7 39.4 466.5 39.6 466.4 39.7C464.8 41.3 463.9 43.5 463.8 45.8V64C463.8 64.5 463.5 64.9 463.1 65.2C462.6 65.5 462.1 65.7 461.5 65.7C461 65.7 460.4 65.6 460 65.2C459.6 65 459.3 64.5 459.3 64V45.7C459.3 42.3 460.6 39.3 463.1 36.7C465.7 34.1 468.7 32.8 472.2 32.8C475.7 32.7 479 34.2 481.3 36.7C484.1 39.3 485.4 42.3 485.4 45.7Z" fill="white"></path><path d="M379.6 34.7001C379.6 34.1001 380 33.6001 380.5 33.3001C381 32.9001 381.7 32.7001 382.3 32.7001C383 32.6001 383.7 33.1001 383.9 33.7001L392.6 58.0001L399.6 35.8001C399.8 35.1001 400.3 34.8001 401.1 34.8001C401.8 34.7001 402.5 35.2001 402.6 36.0001L409.3 58.5001L418.3 33.8001C418.4 33.1001 418.9 32.8001 419.8 32.8001C420.4 32.8001 421.1 33.0001 421.6 33.3001C422.1 33.6001 422.5 34.1001 422.5 34.7001C422.5 35.1001 422.4 35.4001 422.2 35.7001L411.5 64.6001C411.3 65.3001 410.7 65.7001 409.7 65.7001C409.1 65.7001 408.5 65.3001 408.3 64.7001L401.2 42.4001L394.2 64.3001C394 65.2001 393.2 65.8001 392.3 65.7001C391.4 65.8001 390.6 65.2001 390.5 64.3001L379.8 35.7001C379.7 35.4001 379.6 35.1001 379.6 34.7001Z" fill="white"></path><path d="M147 36.2C146.6 35.7 146.1 35.2 145.5 34.8C143.6 33.3 141 32.5 137.6 32.5H136.5C134.9 32.5 133.4 32.8 132 33.4C130.7 34 129.5 34.8 128.5 35.8L127.9 36.3C125.6 38.7 124.3 41.9 124.3 45.3V52.7C124.3 55.4 125.1 58 126.7 60.2C127.1 60.8 127.5 61.3 127.9 61.8C130.2 64.3 132.9 65.6 135.9 65.7H136.4C138.4 65.7 140.3 65.2 142 64.2L142.9 63.6V59.2C141.4 60.7 139.4 61.5 137.2 61.6C134.9 61.6 133 60.7 131.3 58.9L130.9 58.4C129.6 56.8 128.8 54.8 128.8 52.8V45.4C128.8 43.1 129.7 41 131.3 39.4C132.8 37.7 135 36.7 137.3 36.8C139.5 36.8 141.5 37.7 143 39.2C144.1 40.3 144.9 41.6 145.2 43.1C145.2 43.3 145.3 43.6 145.4 43.8C145.4 44 145.4 44.2 145.4 44.5C145.4 44.9 145.5 45.3 145.5 45.7V55L145.6 60.6V63.5L145.7 63.9C145.8 64.2 145.9 64.5 146.2 64.7C146.6 65.1 147.1 65.3 147.7 65.2H147.8L148.3 65.1L148.6 65C148.8 64.9 149.1 64.8 149.3 64.6C149.7 64.3 149.9 63.8 149.9 63.4V45.5C150 41.8 149 38.7 147 36.2Z" fill="white"></path><path d="M245.3 50.2C245.9 50.1 246.5 49.9 247.1 49.6C247.8 49.3 248.3 48.7 248.5 48C248.8 47 249 46 249 44.9C249.1 41.5 247.7 38.3 245.2 36.1C242.8 33.8 239.6 32.5 236.2 32.5C232.8 32.5 229.4 33.8 227 36.2C224.5 38.5 223.1 41.7 223.2 45V52.6C223.2 56.5 224.6 59.6 227.3 62C230 64.4 233.6 65.6 237.9 65.6C240.8 65.6 243.3 65.1 245.2 64.1C247.1 63.1 248.1 62.1 248.1 61.1C248.1 60.6 247.9 60.1 247.5 59.7C247.2 59.3 246.7 59 246.2 59C245.6 59.1 245.1 59.3 244.7 59.7C242.7 61.1 240.4 61.8 238 61.7C234.9 61.7 232.5 60.9 230.5 59.3C228.9 58 227.8 56 227.7 53.9L227.6 54V50.3V47V44.4C227.6 42.2 228.5 40.1 230.1 38.5C231.7 36.9 233.9 36 236.1 36.1C238.4 36 240.7 37 242.2 38.7C243.8 40.3 244.6 42.4 244.6 44.6C244.6 45.6 244.4 46.2 243.9 46.5C243.4 46.8 242.5 47 241.2 47H230.3L230.4 50.3H243C243.8 50.4 244.6 50.3 245.3 50.2Z" fill="white"></path><path d="M449.3 50.2C449.9 50.1 450.5 49.9 451.1 49.6C451.8 49.3 452.3 48.7 452.5 48C452.8 47 453 46 452.9 44.9C453 41.5 451.6 38.3 449.1 36.1C446.7 33.8 443.5 32.5 440.1 32.5C436.7 32.5 433.3 33.8 430.9 36.2C428.5 38.5 427.1 41.7 427.1 45V52.6C427.1 56.5 428.5 59.6 431.2 62C433.9 64.4 437.5 65.6 441.8 65.6C444.7 65.6 447.2 65.1 449.1 64.1C451 63.1 452 62.1 452 61.1C452 60.6 451.8 60.1 451.4 59.7C451.1 59.3 450.6 59 450.1 59C449.5 59.1 449 59.3 448.6 59.7C447.8 60.3 446.9 60.7 446 61.1C444.7 61.6 443.3 61.8 441.9 61.8C438.9 61.8 436.4 61 434.5 59.4C432.6 57.8 431.7 55.8 431.6 53.3V53.1C431.6 53 431.6 52.9 431.6 52.8V50.3V47V44.5C431.6 44.4 431.6 44.3 431.6 44.2V44.1C431.7 42 432.6 40 434.1 38.6C435.7 37 437.9 36.1 440.1 36.2C442.4 36.1 444.6 37.1 446.2 38.8C447.8 40.4 448.6 42.5 448.6 44.7C448.6 45.7 448.4 46.3 447.9 46.6C447.4 46.9 446.5 47.1 445.2 47.1H434.3L434.4 50.4H447C447.8 50.4 448.5 50.3 449.3 50.2Z" fill="white"></path><path d="M283.7 37.2999V16.9C283.7 15.8 283 15.2 281.4 15.2C279.8 15.2 279.2 15.7 279.2 16.9V63.4C279.2 63.9 279.4 64.3999 279.9 64.6999C280.8 65.3999 282.1 65.3999 283 64.6999C283.4 64.3999 283.7 63.9 283.7 63.4V41.2V37.2999Z" fill="white"></path><path d="M305.7 15.3C304.2 15.3 303.4 15.8 303.4 17V37.4001H286.5L286.6 41.3H303.5V63.5C303.5 64 303.7 64.5001 304.2 64.8001C304.7 65.1001 305.2 65.3001 305.8 65.3001C306.4 65.3001 306.9 65.1001 307.4 64.8001C307.8 64.5001 308.1 64 308.1 63.5V16.9C307.9 15.8 307.1 15.3 305.7 15.3Z" fill="white"></path><path d="M69.1 40.6C69.1 56.9 55.9 70 39.6 70C23.3 70 10.2 56.8 10.2 40.5C10.2 24.2 23.4 11.1 39.7 11.1C55.9 11.1 69.1 24.3 69.1 40.6Z" fill="#252F6A"></path><path d="M39.7 78.2C18.9 78.2 2.09998 61.4 2.09998 40.6C2.09998 19.8 18.9 3 39.7 3C60.5 3 77.3 19.8 77.3 40.6C77.2 61.3 60.4 78.2 39.7 78.2ZM39.7 6.3C20.7 6.3 5.29998 21.6 5.29998 40.6C5.29998 59.5 20.6 74.9 39.5 74.9C58.4 74.9 73.8 59.6 73.8 40.7C73.9 21.7 58.6 6.3 39.7 6.3Z" fill="#50B748"></path><path d="M39.7 72.9C21.9 72.9 7.40002 58.5 7.40002 40.6C7.40002 22.8 21.8 8.30005 39.7 8.30005C57.5 8.30005 72 22.7 72 40.6V40.7001C71.9 58.4001 57.5 72.8 39.7 72.9ZM39.7 9.10005C22.3 9.10005 8.20002 23.2 8.10002 40.6C8.10002 58 22.2 72.1 39.5 72.1C56.8 72.1 71.1 58 71.1 40.6C71.1 23.2 57 9.10005 39.7 9.10005Z" fill="white"></path><path d="M54.8 20.9C54.7 21.1 54.6 21.2 54.5 21.4L39.2 57.4L23.9 21.4C22.1 22.9 20.6 24.6 19.3 26.5L35.5 64.6C36.9 64.8 38.3 65 39.7 65C40.7 65 41.8 64.9 42.8 64.8L59.4 25.7C58.1 23.9 56.6 22.3 54.8 20.9Z" fill="white"></path></svg> 